{
	"asset":{
		"generator":"Khronos glTF Blender I/O v4.2.70",
		"version":"2.0"
	},
	"scene":0,
	"scenes":[
		{
			"name":"Scene",
			"nodes":[
				0,
				1,
				2
			]
		}
	],
	"nodes":[
		{
			"mesh":0,
			"name":"Border"
		},
		{
			"mesh":1,
			"name":"Back"
		},
		{
			"mesh":2,
			"name":"Front"
		}
	],
	"materials":[
		{
			"doubleSided":true,
			"name":"Border",
			"pbrMetallicRoughness":{
				"baseColorFactor":[
					0.1312798112630844,
					0.01977529004216194,
					0,
					1
				],
				"metallicFactor":0,
				"roughnessFactor":0.7913385629653931
			}
		},
		{
			"doubleSided":true,
			"name":"Secondary",
			"pbrMetallicRoughness":{
				"baseColorFactor":[
					0.8006623387336731,
					0.002678407123312354,
					0,
					1
				],
				"metallicFactor":0,
				"roughnessFactor":0.7913385629653931
			}
		},
		{
			"doubleSided":true,
			"name":"Primary",
			"pbrMetallicRoughness":{
				"baseColorFactor":[
					0.8009624481201172,
					0.25960999727249146,
					0,
					1
				],
				"metallicFactor":0,
				"roughnessFactor":0.7913385629653931
			}
		}
	],
	"meshes":[
		{
			"name":"Cube.002",
			"primitives":[
				{
					"attributes":{
						"POSITION":0,
						"NORMAL":1,
						"TEXCOORD_0":2
					},
					"indices":3,
					"material":0
				}
			]
		},
		{
			"name":"Cube.003",
			"primitives":[
				{
					"attributes":{
						"POSITION":4,
						"NORMAL":5,
						"TEXCOORD_0":6
					},
					"indices":7,
					"material":1
				}
			]
		},
		{
			"name":"Cube.004",
			"primitives":[
				{
					"attributes":{
						"POSITION":8,
						"NORMAL":9,
						"TEXCOORD_0":10
					},
					"indices":11,
					"material":2
				}
			]
		}
	],
	"accessors":[
		{
			"bufferView":0,
			"componentType":5126,
			"count":540,
			"max":[
				7.366009712219238,
				3.672790050506592,
				-0.29097533226013184
			],
			"min":[
				-7.366009712219238,
				-3.672790050506592,
				-0.5726450085639954
			],
			"type":"VEC3"
		},
		{
			"bufferView":1,
			"componentType":5126,
			"count":540,
			"type":"VEC3"
		},
		{
			"bufferView":2,
			"componentType":5126,
			"count":540,
			"type":"VEC2"
		},
		{
			"bufferView":3,
			"componentType":5123,
			"count":2352,
			"type":"SCALAR"
		},
		{
			"bufferView":4,
			"componentType":5126,
			"count":194,
			"max":[
				7.25190544128418,
				3.558685779571533,
				0.4581168591976166
			],
			"min":[
				-7.25190544128418,
				-3.558685779571533,
				-0.2972167432308197
			],
			"type":"VEC3"
		},
		{
			"bufferView":5,
			"componentType":5126,
			"count":194,
			"type":"VEC3"
		},
		{
			"bufferView":6,
			"componentType":5126,
			"count":194,
			"type":"VEC2"
		},
		{
			"bufferView":7,
			"componentType":5123,
			"count":582,
			"type":"SCALAR"
		},
		{
			"bufferView":8,
			"componentType":5126,
			"count":140,
			"max":[
				7.091005325317383,
				3.3977856636047363,
				-0.4581168591976166
			],
			"min":[
				-7.091005325317383,
				-3.3977856636047363,
				-0.4581168591976166
			],
			"type":"VEC3"
		},
		{
			"bufferView":9,
			"componentType":5126,
			"count":140,
			"type":"VEC3"
		},
		{
			"bufferView":10,
			"componentType":5126,
			"count":140,
			"type":"VEC2"
		},
		{
			"bufferView":11,
			"componentType":5123,
			"count":414,
			"type":"SCALAR"
		}
	],
	"bufferViews":[
		{
			"buffer":0,
			"byteLength":6480,
			"byteOffset":0,
			"target":34962
		},
		{
			"buffer":0,
			"byteLength":6480,
			"byteOffset":6480,
			"target":34962
		},
		{
			"buffer":0,
			"byteLength":4320,
			"byteOffset":12960,
			"target":34962
		},
		{
			"buffer":0,
			"byteLength":4704,
			"byteOffset":17280,
			"target":34963
		},
		{
			"buffer":0,
			"byteLength":2328,
			"byteOffset":21984,
			"target":34962
		},
		{
			"buffer":0,
			"byteLength":2328,
			"byteOffset":24312,
			"target":34962
		},
		{
			"buffer":0,
			"byteLength":1552,
			"byteOffset":26640,
			"target":34962
		},
		{
			"buffer":0,
			"byteLength":1164,
			"byteOffset":28192,
			"target":34963
		},
		{
			"buffer":0,
			"byteLength":1680,
			"byteOffset":29356,
			"target":34962
		},
		{
			"buffer":0,
			"byteLength":1680,
			"byteOffset":31036,
			"target":34962
		},
		{
			"buffer":0,
			"byteLength":1120,
			"byteOffset":32716,
			"target":34962
		},
		{
			"buffer":0,
			"byteLength":828,
			"byteOffset":33836,
			"target":34963
		}
	],
	"buffers":[
		{
			"byteLength":34664,
			"uri":"playbtn.bin"
		}
	]
}
