{
	"asset":{
		"generator":"Khronos glTF Blender I/O v4.2.70",
		"version":"2.0"
	},
	"scene":0,
	"scenes":[
		{
			"name":"Scene",
			"nodes":[
				0,
				1
			]
		}
	],
	"nodes":[
		{
			"mesh":0,
			"name":"Cube"
		},
		{
			"mesh":1,
			"name":"Sleeve",
			"scale":[
				1.0662453174591064,
				1,
				1.0662453174591064
			]
		}
	],
	"materials":[
		{
			"doubleSided":true,
			"name":"Skin",
			"pbrMetallicRoughness":{
				"baseColorFactor":[
					0.8008996248245239,
					0.4357044994831085,
					0.21073362231254578,
					1
				],
				"metallicFactor":0,
				"roughnessFactor":0.8070865869522095
			}
		},
		{
			"doubleSided":true,
			"name":"Sleeve",
			"pbrMetallicRoughness":{
				"baseColorFactor":[
					0.08052901923656464,
					0.1426214873790741,
					0.8004660606384277,
					1
				],
				"metallicFactor":0,
				"roughnessFactor":0.5196850299835205
			}
		}
	],
	"meshes":[
		{
			"name":"Cube.001",
			"primitives":[
				{
					"attributes":{
						"POSITION":0,
						"NORMAL":1
					},
					"indices":2,
					"material":0
				}
			]
		},
		{
			"name":"Cube.002",
			"primitives":[
				{
					"attributes":{
						"POSITION":3,
						"NORMAL":4
					},
					"indices":5,
					"material":1
				}
			]
		}
	],
	"accessors":[
		{
			"bufferView":0,
			"componentType":5126,
			"count":1714,
			"max":[
				3.321124315261841,
				16.220613479614258,
				1.3422462940216064
			],
			"min":[
				-3.3315210342407227,
				0.37162646651268005,
				-3.166874647140503
			],
			"type":"VEC3"
		},
		{
			"bufferView":1,
			"componentType":5126,
			"count":1714,
			"type":"VEC3"
		},
		{
			"bufferView":2,
			"componentType":5123,
			"count":10272,
			"type":"SCALAR"
		},
		{
			"bufferView":3,
			"componentType":5126,
			"count":409,
			"max":[
				2.034703493118286,
				10.454652786254883,
				1.7966266870498657
			],
			"min":[
				-1.9750206470489502,
				-0.057247549295425415,
				-1.7966264486312866
			],
			"type":"VEC3"
		},
		{
			"bufferView":4,
			"componentType":5126,
			"count":409,
			"type":"VEC3"
		},
		{
			"bufferView":5,
			"componentType":5123,
			"count":2400,
			"type":"SCALAR"
		}
	],
	"bufferViews":[
		{
			"buffer":0,
			"byteLength":20568,
			"byteOffset":0,
			"target":34962
		},
		{
			"buffer":0,
			"byteLength":20568,
			"byteOffset":20568,
			"target":34962
		},
		{
			"buffer":0,
			"byteLength":20544,
			"byteOffset":41136,
			"target":34963
		},
		{
			"buffer":0,
			"byteLength":4908,
			"byteOffset":61680,
			"target":34962
		},
		{
			"buffer":0,
			"byteLength":4908,
			"byteOffset":66588,
			"target":34962
		},
		{
			"buffer":0,
			"byteLength":4800,
			"byteOffset":71496,
			"target":34963
		}
	],
	"buffers":[
		{
			"byteLength":76296,
			"uri":"rock.bin"
		}
	]
}
